<svg xmlns="http://www.w3.org/2000/svg" width="1360" height="1360" viewBox="0 0 1360 1360" style="--backstreet-color:#56cfff">
  <title>Road to Riches Backstreet curved-blade whirlpool candidates</title>
  <desc>Ten labeled Backstreet board-tile candidates using six through ten clearly separated curved firework-like blades. Previewed in blue through one configurable color variable.</desc>

  <defs>
    <path id="arm-soft" d="M8 1C20 3 31-1 39-9 44-14 47-21 48-28"/>
    <path id="arm-deep" d="M7 3C19 7 32 4 40-4 46-10 49-20 47-31"/>
    <path id="arm-tight" d="M9 0C21 1 33-3 41-11 45-15 48-20 49-25"/>
    <path id="arm-wide" d="M8 2C18 5 29 3 38-4 44-9 48-16 49-24"/>
    <path id="arm-hook" d="M7 2C18 6 30 6 39 0 46-5 50-14 50-24"/>

    <symbol id="whirl-01" viewBox="-55 -55 110 110"><g fill="none" stroke="currentColor" stroke-width="7.5" stroke-linecap="round"><use href="#arm-soft"/><use href="#arm-soft" transform="rotate(60)"/><use href="#arm-soft" transform="rotate(120)"/><use href="#arm-soft" transform="rotate(180)"/><use href="#arm-soft" transform="rotate(240)"/><use href="#arm-soft" transform="rotate(300)"/></g></symbol>
    <symbol id="whirl-02" viewBox="-55 -55 110 110"><g fill="none" stroke="currentColor" stroke-width="7" stroke-linecap="round"><use href="#arm-soft"/><use href="#arm-soft" transform="rotate(51.4286)"/><use href="#arm-soft" transform="rotate(102.8571)"/><use href="#arm-soft" transform="rotate(154.2857)"/><use href="#arm-soft" transform="rotate(205.7143)"/><use href="#arm-soft" transform="rotate(257.1429)"/><use href="#arm-soft" transform="rotate(308.5714)"/></g></symbol>
    <symbol id="whirl-03" viewBox="-55 -55 110 110"><g fill="none" stroke="currentColor" stroke-width="6.5" stroke-linecap="round"><use href="#arm-soft"/><use href="#arm-soft" transform="rotate(45)"/><use href="#arm-soft" transform="rotate(90)"/><use href="#arm-soft" transform="rotate(135)"/><use href="#arm-soft" transform="rotate(180)"/><use href="#arm-soft" transform="rotate(225)"/><use href="#arm-soft" transform="rotate(270)"/><use href="#arm-soft" transform="rotate(315)"/></g></symbol>
    <symbol id="whirl-04" viewBox="-55 -55 110 110"><g fill="none" stroke="currentColor" stroke-width="5.8" stroke-linecap="round"><use href="#arm-tight"/><use href="#arm-tight" transform="rotate(40)"/><use href="#arm-tight" transform="rotate(80)"/><use href="#arm-tight" transform="rotate(120)"/><use href="#arm-tight" transform="rotate(160)"/><use href="#arm-tight" transform="rotate(200)"/><use href="#arm-tight" transform="rotate(240)"/><use href="#arm-tight" transform="rotate(280)"/><use href="#arm-tight" transform="rotate(320)"/></g></symbol>
    <symbol id="whirl-05" viewBox="-55 -55 110 110"><g fill="none" stroke="currentColor" stroke-width="5.2" stroke-linecap="round"><use href="#arm-tight"/><use href="#arm-tight" transform="rotate(36)"/><use href="#arm-tight" transform="rotate(72)"/><use href="#arm-tight" transform="rotate(108)"/><use href="#arm-tight" transform="rotate(144)"/><use href="#arm-tight" transform="rotate(180)"/><use href="#arm-tight" transform="rotate(216)"/><use href="#arm-tight" transform="rotate(252)"/><use href="#arm-tight" transform="rotate(288)"/><use href="#arm-tight" transform="rotate(324)"/></g></symbol>
    <symbol id="whirl-06" viewBox="-55 -55 110 110"><g fill="none" stroke="currentColor" stroke-width="7.5" stroke-linecap="round"><use href="#arm-deep"/><use href="#arm-deep" transform="rotate(60)"/><use href="#arm-deep" transform="rotate(120)"/><use href="#arm-deep" transform="rotate(180)"/><use href="#arm-deep" transform="rotate(240)"/><use href="#arm-deep" transform="rotate(300)"/></g></symbol>
    <symbol id="whirl-07" viewBox="-55 -55 110 110"><g fill="none" stroke="currentColor" stroke-width="6.8" stroke-linecap="round"><use href="#arm-deep"/><use href="#arm-deep" transform="rotate(51.4286)"/><use href="#arm-deep" transform="rotate(102.8571)"/><use href="#arm-deep" transform="rotate(154.2857)"/><use href="#arm-deep" transform="rotate(205.7143)"/><use href="#arm-deep" transform="rotate(257.1429)"/><use href="#arm-deep" transform="rotate(308.5714)"/></g></symbol>
    <symbol id="whirl-08" viewBox="-55 -55 110 110"><g fill="none" stroke="currentColor" stroke-width="6.2" stroke-linecap="round"><use href="#arm-wide"/><use href="#arm-wide" transform="rotate(45)"/><use href="#arm-wide" transform="rotate(90)"/><use href="#arm-wide" transform="rotate(135)"/><use href="#arm-wide" transform="rotate(180)"/><use href="#arm-wide" transform="rotate(225)"/><use href="#arm-wide" transform="rotate(270)"/><use href="#arm-wide" transform="rotate(315)"/></g></symbol>
    <symbol id="whirl-09" viewBox="-55 -55 110 110"><g fill="none" stroke="currentColor" stroke-width="5.6" stroke-linecap="round"><use href="#arm-hook"/><use href="#arm-hook" transform="rotate(40)"/><use href="#arm-hook" transform="rotate(80)"/><use href="#arm-hook" transform="rotate(120)"/><use href="#arm-hook" transform="rotate(160)"/><use href="#arm-hook" transform="rotate(200)"/><use href="#arm-hook" transform="rotate(240)"/><use href="#arm-hook" transform="rotate(280)"/><use href="#arm-hook" transform="rotate(320)"/></g></symbol>
    <symbol id="whirl-10" viewBox="-55 -55 110 110"><g fill="none" stroke="currentColor" stroke-width="5" stroke-linecap="round"><use href="#arm-hook"/><use href="#arm-hook" transform="rotate(36)"/><use href="#arm-hook" transform="rotate(72)"/><use href="#arm-hook" transform="rotate(108)"/><use href="#arm-hook" transform="rotate(144)"/><use href="#arm-hook" transform="rotate(180)"/><use href="#arm-hook" transform="rotate(216)"/><use href="#arm-hook" transform="rotate(252)"/><use href="#arm-hook" transform="rotate(288)"/><use href="#arm-hook" transform="rotate(324)"/></g></symbol>
  </defs>

  <rect width="1360" height="1360" fill="#171b24"/>
  <text x="36" y="49" fill="#f7f7f2" font-family="Inter,ui-sans-serif,system-ui,sans-serif" font-size="28" font-weight="850" letter-spacing="1.2">BACKSTREET • CURVED WHIRLPOOL</text>
  <text x="1324" y="48" fill="#9da5b4" font-family="Inter,ui-sans-serif,system-ui,sans-serif" font-size="14" font-weight="700" letter-spacing="1" text-anchor="end">6–10 SEPARATE BLADES • CONFIGURABLE COLOR</text>

  <g font-family="Inter,ui-sans-serif,system-ui,sans-serif" color="var(--backstreet-color)">
    <g transform="translate(30 90)"><rect width="220" height="220" rx="20" fill="#080a0e" stroke="#f7f7f2" stroke-width="6"/><text x="110" y="42" fill="#f7f7f2" font-size="20" font-weight="900" text-anchor="middle">BACKSTREET</text><use href="#whirl-01" x="48" y="63" width="124" height="124"/></g>
    <g transform="translate(300 90)"><rect width="220" height="220" rx="20" fill="#080a0e" stroke="#f7f7f2" stroke-width="6"/><text x="110" y="42" fill="#f7f7f2" font-size="20" font-weight="900" text-anchor="middle">BACKSTREET</text><use href="#whirl-02" x="48" y="63" width="124" height="124"/></g>
    <g transform="translate(570 90)"><rect width="220" height="220" rx="20" fill="#080a0e" stroke="#f7f7f2" stroke-width="6"/><text x="110" y="42" fill="#f7f7f2" font-size="20" font-weight="900" text-anchor="middle">BACKSTREET</text><use href="#whirl-03" x="48" y="63" width="124" height="124"/></g>
    <g transform="translate(840 90)"><rect width="220" height="220" rx="20" fill="#080a0e" stroke="#f7f7f2" stroke-width="6"/><text x="110" y="42" fill="#f7f7f2" font-size="20" font-weight="900" text-anchor="middle">BACKSTREET</text><use href="#whirl-04" x="48" y="63" width="124" height="124"/></g>
    <g transform="translate(1110 90)"><rect width="220" height="220" rx="20" fill="#080a0e" stroke="#f7f7f2" stroke-width="6"/><text x="110" y="42" fill="#f7f7f2" font-size="20" font-weight="900" text-anchor="middle">BACKSTREET</text><use href="#whirl-05" x="48" y="63" width="124" height="124"/></g>
    <g transform="translate(30 750)"><rect width="220" height="220" rx="20" fill="#080a0e" stroke="#f7f7f2" stroke-width="6"/><text x="110" y="42" fill="#f7f7f2" font-size="20" font-weight="900" text-anchor="middle">BACKSTREET</text><use href="#whirl-06" x="48" y="63" width="124" height="124"/></g>
    <g transform="translate(300 750)"><rect width="220" height="220" rx="20" fill="#080a0e" stroke="#f7f7f2" stroke-width="6"/><text x="110" y="42" fill="#f7f7f2" font-size="20" font-weight="900" text-anchor="middle">BACKSTREET</text><use href="#whirl-07" x="48" y="63" width="124" height="124"/></g>
    <g transform="translate(570 750)"><rect width="220" height="220" rx="20" fill="#080a0e" stroke="#f7f7f2" stroke-width="6"/><text x="110" y="42" fill="#f7f7f2" font-size="20" font-weight="900" text-anchor="middle">BACKSTREET</text><use href="#whirl-08" x="48" y="63" width="124" height="124"/></g>
    <g transform="translate(840 750)"><rect width="220" height="220" rx="20" fill="#080a0e" stroke="#f7f7f2" stroke-width="6"/><text x="110" y="42" fill="#f7f7f2" font-size="20" font-weight="900" text-anchor="middle">BACKSTREET</text><use href="#whirl-09" x="48" y="63" width="124" height="124"/></g>
    <g transform="translate(1110 750)"><rect width="220" height="220" rx="20" fill="#080a0e" stroke="#f7f7f2" stroke-width="6"/><text x="110" y="42" fill="#f7f7f2" font-size="20" font-weight="900" text-anchor="middle">BACKSTREET</text><use href="#whirl-10" x="48" y="63" width="124" height="124"/></g>
  </g>

  <g fill="#f7f7f2" font-family="Inter,ui-sans-serif,system-ui,sans-serif" font-size="16" font-weight="800" text-anchor="middle">
    <text x="140" y="345">01  6 SOFT</text><text x="410" y="345">02  7 SOFT</text><text x="680" y="345">03  8 SOFT</text><text x="950" y="345">04  9 TIGHT</text><text x="1220" y="345">05  10 TIGHT</text>
    <text x="140" y="1005">06  6 DEEP</text><text x="410" y="1005">07  7 DEEP</text><text x="680" y="1005">08  8 WIDE</text><text x="950" y="1005">09  9 HOOK</text><text x="1220" y="1005">10  10 HOOK</text>
  </g>
  <text x="680" y="1160" fill="#9da5b4" font-family="Inter,ui-sans-serif,system-ui,sans-serif" font-size="14" font-weight="700" text-anchor="middle">PREVIEW COLOR: #56CFFF • PRODUCTION INPUT: --BACKSTREET-COLOR</text>
</svg>
