<svg xmlns="http://www.w3.org/2000/svg" width="1360" height="1360" viewBox="0 0 1360 1360" style="--backstreet-color:#56cfff">
  <title>Road to Riches Backstreet 08 Wide refinements</title>
  <desc>Ten labeled eight-blade refinements based on Backstreet candidate 08 Wide, progressing from separated curved strokes to thicker tapered whirlpool vanes.</desc>

  <defs>
    <path id="stroke-wide" d="M8 2C18 5 29 3 38-4 44-9 48-16 49-24"/>
    <path id="stroke-long" d="M8 2C20 5 32 1 41-8 47-14 50-23 50-32"/>
    <path id="stroke-deep" d="M8 3C19 8 32 6 41-2 48-8 51-18 49-29"/>
    <path id="stroke-open" d="M13 2C23 4 33 1 41-7 46-12 49-19 50-27"/>

    <path id="ribbon-soft" d="M9 2C20 4 31 1 39-7 44-12 48-18 50-25L44-21C39-17 34-14 29-12 22-9 15-9 10-10 7-7 7-2 9 2Z"/>
    <path id="ribbon-deep" d="M8 3C19 7 32 5 41-3 47-9 50-18 49-29L43-23C39-16 34-12 28-10 20-7 14-9 10-12 7-8 6-2 8 3Z"/>
    <path id="ribbon-long" d="M10 1C22 3 34-1 42-10 47-16 50-24 50-33L44-26C40-19 35-15 29-13 21-10 15-10 11-11 9-7 8-2 10 1Z"/>
    <path id="ribbon-broad" d="M8 4C19 8 31 6 40-1 46-6 50-14 51-23L43-18C37-13 31-10 24-9 17-8 12-10 10-13 6-9 5-2 8 4Z"/>
    <path id="ribbon-sharp" d="M10 1C22 3 34-2 42-11 46-16 49-22 52-31L43-24C38-18 33-14 27-12 20-10 15-11 11-12 9-7 8-2 10 1Z"/>

    <symbol id="refine-01" viewBox="-57 -57 114 114"><g fill="none" stroke="currentColor" stroke-width="6.2" stroke-linecap="round"><use href="#stroke-wide"/><use href="#stroke-wide" transform="rotate(45)"/><use href="#stroke-wide" transform="rotate(90)"/><use href="#stroke-wide" transform="rotate(135)"/><use href="#stroke-wide" transform="rotate(180)"/><use href="#stroke-wide" transform="rotate(225)"/><use href="#stroke-wide" transform="rotate(270)"/><use href="#stroke-wide" transform="rotate(315)"/></g></symbol>
    <symbol id="refine-02" viewBox="-57 -57 114 114"><g fill="none" stroke="currentColor" stroke-width="8.5" stroke-linecap="round"><use href="#stroke-wide"/><use href="#stroke-wide" transform="rotate(45)"/><use href="#stroke-wide" transform="rotate(90)"/><use href="#stroke-wide" transform="rotate(135)"/><use href="#stroke-wide" transform="rotate(180)"/><use href="#stroke-wide" transform="rotate(225)"/><use href="#stroke-wide" transform="rotate(270)"/><use href="#stroke-wide" transform="rotate(315)"/></g></symbol>
    <symbol id="refine-03" viewBox="-57 -57 114 114"><g fill="none" stroke="currentColor" stroke-width="7" stroke-linecap="round"><use href="#stroke-long"/><use href="#stroke-long" transform="rotate(45)"/><use href="#stroke-long" transform="rotate(90)"/><use href="#stroke-long" transform="rotate(135)"/><use href="#stroke-long" transform="rotate(180)"/><use href="#stroke-long" transform="rotate(225)"/><use href="#stroke-long" transform="rotate(270)"/><use href="#stroke-long" transform="rotate(315)"/></g></symbol>
    <symbol id="refine-04" viewBox="-57 -57 114 114"><g fill="none" stroke="currentColor" stroke-width="7.2" stroke-linecap="round"><use href="#stroke-deep"/><use href="#stroke-deep" transform="rotate(45)"/><use href="#stroke-deep" transform="rotate(90)"/><use href="#stroke-deep" transform="rotate(135)"/><use href="#stroke-deep" transform="rotate(180)"/><use href="#stroke-deep" transform="rotate(225)"/><use href="#stroke-deep" transform="rotate(270)"/><use href="#stroke-deep" transform="rotate(315)"/></g></symbol>
    <symbol id="refine-05" viewBox="-57 -57 114 114"><g fill="none" stroke="currentColor" stroke-width="7.2" stroke-linecap="round"><use href="#stroke-open"/><use href="#stroke-open" transform="rotate(45)"/><use href="#stroke-open" transform="rotate(90)"/><use href="#stroke-open" transform="rotate(135)"/><use href="#stroke-open" transform="rotate(180)"/><use href="#stroke-open" transform="rotate(225)"/><use href="#stroke-open" transform="rotate(270)"/><use href="#stroke-open" transform="rotate(315)"/></g></symbol>
    <symbol id="refine-06" viewBox="-57 -57 114 114"><g fill="currentColor"><use href="#ribbon-soft"/><use href="#ribbon-soft" transform="rotate(45)"/><use href="#ribbon-soft" transform="rotate(90)"/><use href="#ribbon-soft" transform="rotate(135)"/><use href="#ribbon-soft" transform="rotate(180)"/><use href="#ribbon-soft" transform="rotate(225)"/><use href="#ribbon-soft" transform="rotate(270)"/><use href="#ribbon-soft" transform="rotate(315)"/></g></symbol>
    <symbol id="refine-07" viewBox="-57 -57 114 114"><g fill="currentColor"><use href="#ribbon-deep"/><use href="#ribbon-deep" transform="rotate(45)"/><use href="#ribbon-deep" transform="rotate(90)"/><use href="#ribbon-deep" transform="rotate(135)"/><use href="#ribbon-deep" transform="rotate(180)"/><use href="#ribbon-deep" transform="rotate(225)"/><use href="#ribbon-deep" transform="rotate(270)"/><use href="#ribbon-deep" transform="rotate(315)"/></g></symbol>
    <symbol id="refine-08" viewBox="-57 -57 114 114"><g fill="currentColor"><use href="#ribbon-long"/><use href="#ribbon-long" transform="rotate(45)"/><use href="#ribbon-long" transform="rotate(90)"/><use href="#ribbon-long" transform="rotate(135)"/><use href="#ribbon-long" transform="rotate(180)"/><use href="#ribbon-long" transform="rotate(225)"/><use href="#ribbon-long" transform="rotate(270)"/><use href="#ribbon-long" transform="rotate(315)"/></g></symbol>
    <symbol id="refine-09" viewBox="-57 -57 114 114"><g fill="currentColor"><use href="#ribbon-broad"/><use href="#ribbon-broad" transform="rotate(45)"/><use href="#ribbon-broad" transform="rotate(90)"/><use href="#ribbon-broad" transform="rotate(135)"/><use href="#ribbon-broad" transform="rotate(180)"/><use href="#ribbon-broad" transform="rotate(225)"/><use href="#ribbon-broad" transform="rotate(270)"/><use href="#ribbon-broad" transform="rotate(315)"/></g></symbol>
    <symbol id="refine-10" viewBox="-57 -57 114 114"><g fill="currentColor"><use href="#ribbon-sharp"/><use href="#ribbon-sharp" transform="rotate(45)"/><use href="#ribbon-sharp" transform="rotate(90)"/><use href="#ribbon-sharp" transform="rotate(135)"/><use href="#ribbon-sharp" transform="rotate(180)"/><use href="#ribbon-sharp" transform="rotate(225)"/><use href="#ribbon-sharp" transform="rotate(270)"/><use href="#ribbon-sharp" transform="rotate(315)"/></g></symbol>
  </defs>

  <rect width="1360" height="1360" fill="#171b24"/>
  <text x="36" y="49" fill="#f7f7f2" font-family="Inter,ui-sans-serif,system-ui,sans-serif" font-size="28" font-weight="850" letter-spacing="1.2">BACKSTREET • 08 WIDE REFINEMENTS</text>
  <text x="1324" y="48" fill="#9da5b4" font-family="Inter,ui-sans-serif,system-ui,sans-serif" font-size="14" font-weight="700" letter-spacing="1" text-anchor="end">EIGHT SEPARATE BLADES • CONFIGURABLE COLOR</text>

  <g font-family="Inter,ui-sans-serif,system-ui,sans-serif" color="var(--backstreet-color)">
    <g transform="translate(30 90)"><rect width="220" height="220" rx="20" fill="#080a0e" stroke="#f7f7f2" stroke-width="6"/><text x="110" y="42" fill="#f7f7f2" font-size="20" font-weight="900" text-anchor="middle">BACKSTREET</text><use href="#refine-01" x="47" y="62" width="126" height="126"/></g>
    <g transform="translate(300 90)"><rect width="220" height="220" rx="20" fill="#080a0e" stroke="#f7f7f2" stroke-width="6"/><text x="110" y="42" fill="#f7f7f2" font-size="20" font-weight="900" text-anchor="middle">BACKSTREET</text><use href="#refine-02" x="47" y="62" width="126" height="126"/></g>
    <g transform="translate(570 90)"><rect width="220" height="220" rx="20" fill="#080a0e" stroke="#f7f7f2" stroke-width="6"/><text x="110" y="42" fill="#f7f7f2" font-size="20" font-weight="900" text-anchor="middle">BACKSTREET</text><use href="#refine-03" x="47" y="62" width="126" height="126"/></g>
    <g transform="translate(840 90)"><rect width="220" height="220" rx="20" fill="#080a0e" stroke="#f7f7f2" stroke-width="6"/><text x="110" y="42" fill="#f7f7f2" font-size="20" font-weight="900" text-anchor="middle">BACKSTREET</text><use href="#refine-04" x="47" y="62" width="126" height="126"/></g>
    <g transform="translate(1110 90)"><rect width="220" height="220" rx="20" fill="#080a0e" stroke="#f7f7f2" stroke-width="6"/><text x="110" y="42" fill="#f7f7f2" font-size="20" font-weight="900" text-anchor="middle">BACKSTREET</text><use href="#refine-05" x="47" y="62" width="126" height="126"/></g>
    <g transform="translate(30 750)"><rect width="220" height="220" rx="20" fill="#080a0e" stroke="#f7f7f2" stroke-width="6"/><text x="110" y="42" fill="#f7f7f2" font-size="20" font-weight="900" text-anchor="middle">BACKSTREET</text><use href="#refine-06" x="47" y="62" width="126" height="126"/></g>
    <g transform="translate(300 750)"><rect width="220" height="220" rx="20" fill="#080a0e" stroke="#f7f7f2" stroke-width="6"/><text x="110" y="42" fill="#f7f7f2" font-size="20" font-weight="900" text-anchor="middle">BACKSTREET</text><use href="#refine-07" x="47" y="62" width="126" height="126"/></g>
    <g transform="translate(570 750)"><rect width="220" height="220" rx="20" fill="#080a0e" stroke="#f7f7f2" stroke-width="6"/><text x="110" y="42" fill="#f7f7f2" font-size="20" font-weight="900" text-anchor="middle">BACKSTREET</text><use href="#refine-08" x="47" y="62" width="126" height="126"/></g>
    <g transform="translate(840 750)"><rect width="220" height="220" rx="20" fill="#080a0e" stroke="#f7f7f2" stroke-width="6"/><text x="110" y="42" fill="#f7f7f2" font-size="20" font-weight="900" text-anchor="middle">BACKSTREET</text><use href="#refine-09" x="47" y="62" width="126" height="126"/></g>
    <g transform="translate(1110 750)"><rect width="220" height="220" rx="20" fill="#080a0e" stroke="#f7f7f2" stroke-width="6"/><text x="110" y="42" fill="#f7f7f2" font-size="20" font-weight="900" text-anchor="middle">BACKSTREET</text><use href="#refine-10" x="47" y="62" width="126" height="126"/></g>
  </g>

  <g fill="#f7f7f2" font-family="Inter,ui-sans-serif,system-ui,sans-serif" font-size="16" font-weight="800" text-anchor="middle">
    <text x="140" y="345">01  ORIGINAL WIDE</text><text x="410" y="345">02  THICK STROKE</text><text x="680" y="345">03  LONG ARC</text><text x="950" y="345">04  DEEP CURL</text><text x="1220" y="345">05  OPEN CENTER</text>
    <text x="140" y="1005">06  TAPERED SOFT</text><text x="410" y="1005">07  TAPERED DEEP</text><text x="680" y="1005">08  TAPERED LONG</text><text x="950" y="1005">09  BROAD RIBBON</text><text x="1220" y="1005">10  SHARP RIBBON</text>
  </g>
  <text x="680" y="1160" fill="#9da5b4" font-family="Inter,ui-sans-serif,system-ui,sans-serif" font-size="14" font-weight="700" text-anchor="middle">PREVIEW COLOR: #56CFFF • PRODUCTION INPUT: --BACKSTREET-COLOR</text>
</svg>
