<svg xmlns="http://www.w3.org/2000/svg" width="1400" height="1400" viewBox="0 0 1400 1400">
  <title>Road to Riches stockbroker square SVG candidates</title>
  <desc>Ten simple market-green stockbroker icons previewed on dark Road to Riches board tiles.</desc>
  <defs>
    <symbol id="stockbroker-01-broker" viewBox="0 0 100 100">
      <circle fill="currentColor" cx="50" cy="24" r="13"/>
      <path fill="currentColor" d="M21 88c1-25 12-39 29-39s28 14 29 39z"/>
      <path fill="var(--broker-cutout, #080a0e)" d="m34 52 16 15 16-15-7-3-9 8-9-8zM47 66h6l4 22H43z"/>
      <path fill="currentColor" d="M13 94h74v5H13z"/>
    </symbol>
    <symbol id="stockbroker-02-uptrend" viewBox="0 0 100 100">
      <rect fill="currentColor" x="14" y="66" width="13" height="22" rx="3"/><rect fill="currentColor" x="35" y="55" width="13" height="33" rx="3"/><rect fill="currentColor" x="56" y="42" width="13" height="46" rx="3"/>
      <path fill="none" stroke="currentColor" stroke-width="8" stroke-linecap="round" stroke-linejoin="round" d="m15 54 21-18 17 8 28-26"/><path fill="currentColor" d="m71 13 17-2-2 17zM9 92h82v6H9z"/>
    </symbol>
    <symbol id="stockbroker-03-candles" viewBox="0 0 100 100">
      <path fill="none" stroke="currentColor" stroke-width="4" stroke-linecap="round" d="M20 26v55M40 16v62M60 30v54M80 11v59"/>
      <rect fill="currentColor" x="13" y="40" width="14" height="24" rx="3"/><rect fill="currentColor" x="33" y="27" width="14" height="31" rx="3"/><rect fill="currentColor" x="53" y="47" width="14" height="24" rx="3"/><rect fill="currentColor" x="73" y="23" width="14" height="29" rx="3"/><path fill="currentColor" d="M10 90h80v7H10z"/>
    </symbol>
    <symbol id="stockbroker-04-exchange" viewBox="0 0 100 100">
      <path fill="none" stroke="currentColor" stroke-width="10" stroke-linecap="round" d="M19 39a34 34 0 0 1 56-15M81 61a34 34 0 0 1-56 15"/><path fill="currentColor" d="m69 13 20 4-8 19zM31 87l-20-4 8-19z"/><circle fill="currentColor" cx="50" cy="50" r="17"/>
      <path fill="var(--broker-cutout, #080a0e)" d="M54 36v5c5 1 8 4 8 9h-9c0-2-1-3-4-3-2 0-3 1-3 2 0 2 2 2 6 3 7 1 11 4 11 10 0 5-3 8-9 9v5h-8v-5c-6-1-10-5-10-10h9c0 2 2 4 5 4 3 0 4-1 4-3s-2-2-6-3c-7-1-11-4-11-10 0-5 3-8 9-9v-4z"/>
    </symbol>
    <symbol id="stockbroker-05-bell" viewBox="0 0 100 100">
      <path fill="currentColor" d="M24 68c8-7 10-17 10-29 0-11 6-19 16-19s16 8 16 19c0 12 2 22 10 29v7H24zM17 78h66v8H17z"/><circle fill="currentColor" cx="50" cy="91" r="7"/>
      <path fill="none" stroke="currentColor" stroke-width="7" stroke-linecap="round" stroke-linejoin="round" d="m14 42 17-16 14 6 24-20"/><path fill="currentColor" d="m61 8 18-2-3 18z"/>
    </symbol>
    <symbol id="stockbroker-06-briefcase" viewBox="0 0 100 100">
      <path fill="currentColor" d="M35 17h30c5 0 9 4 9 9v7h10c7 0 11 4 11 11v40c0 7-4 11-11 11H16C9 95 5 91 5 84V44c0-7 4-11 11-11h10v-7c0-5 4-9 9-9zm1 16h28v-6H36z"/><rect fill="var(--broker-cutout, #080a0e)" x="13" y="43" width="74" height="42" rx="4"/>
      <path fill="none" stroke="currentColor" stroke-width="8" stroke-linecap="round" stroke-linejoin="round" d="m20 73 16-14 13 7 25-20"/><path fill="currentColor" d="m66 42 17-2-3 18z"/>
    </symbol>
    <symbol id="stockbroker-07-terminal" viewBox="0 0 100 100">
      <rect fill="currentColor" x="7" y="12" width="86" height="63" rx="9"/><rect fill="var(--broker-cutout, #080a0e)" x="16" y="21" width="68" height="45" rx="4"/>
      <path fill="none" stroke="currentColor" stroke-width="7" stroke-linecap="round" stroke-linejoin="round" d="m24 54 13-13 12 6 22-20"/><path fill="currentColor" d="m64 23 16-2-3 16zM43 75h14v12h18v8H25v-8h18z"/>
    </symbol>
    <symbol id="stockbroker-08-bull" viewBox="0 0 100 100">
      <path fill="currentColor" d="M15 15c5 13 13 18 24 19 4-7 11-11 20-9 3 1 6 2 8 5 9-3 15-9 18-20 8 14 7 27-4 37 2 6 2 13-1 20-5 12-15 20-30 20S25 79 20 67c-3-7-3-15 0-22C10 37 8 26 15 15zM42 75h16l-2 13H44zM24 92h52v6H24z"/>
      <path fill="var(--broker-cutout, #080a0e)" d="M30 50c6-7 13-10 20-10s14 3 20 10c-3 1-7 1-10-1-2 5-5 8-10 8s-8-3-10-8c-3 2-7 2-10 1z"/><circle fill="var(--broker-cutout, #080a0e)" cx="35" cy="63" r="4"/><circle fill="var(--broker-cutout, #080a0e)" cx="65" cy="63" r="4"/>
    </symbol>
    <symbol id="stockbroker-09-deal" viewBox="0 0 100 100">
      <path fill="currentColor" d="M4 42 27 22l18 20-23 20zM96 42 73 22 55 42l23 20zM25 58l17-17c5-5 11-5 16 0l17 17-10 10-17-13-13 13z"/>
      <rect fill="currentColor" x="31" y="66" width="12" height="20" rx="6" transform="rotate(-42 37 76)"/><rect fill="currentColor" x="45" y="70" width="12" height="21" rx="6" transform="rotate(-42 51 80)"/><rect fill="currentColor" x="59" y="66" width="12" height="20" rx="6" transform="rotate(-42 65 76)"/>
    </symbol>
    <symbol id="stockbroker-10-ticker" viewBox="0 0 100 100">
      <path fill="currentColor" d="M19 9h62v82l-8-5-8 5-8-5-8 5-8-5-8 5-8-5-6 4z"/><rect fill="var(--broker-cutout, #080a0e)" x="29" y="21" width="42" height="8" rx="4"/>
      <path fill="none" stroke="var(--broker-cutout, #080a0e)" stroke-width="7" stroke-linecap="round" stroke-linejoin="round" d="m29 65 12-13 11 6 18-19"/><path fill="var(--broker-cutout, #080a0e)" d="m63 35 14-2-3 14zM29 74h42v7H29z"/>
    </symbol>
    <filter id="tile-shadow" x="-20%" y="-20%" width="140%" height="150%"><feDropShadow dx="0" dy="8" stdDeviation="9" flood-color="#000" flood-opacity=".28"/></filter>
  </defs>
  <rect width="1400" height="1400" fill="#171b24"/>
  <text x="48" y="72" fill="#f7f7f2" font-family="Inter,ui-sans-serif,system-ui,sans-serif" font-size="34" font-weight="800" letter-spacing="1.4">STOCKBROKER SVG DIRECTIONS</text>
  <text x="1352" y="69" fill="#9da5b4" font-family="Inter,ui-sans-serif,system-ui,sans-serif" font-size="17" text-anchor="end">NO BANK BUILDINGS • TEMPORARY MARKET GREEN</text>
  <g color="#62d6a1" style="--broker-cutout:#080a0e" font-family="Inter,ui-sans-serif,system-ui,sans-serif">
    <g transform="translate(46 155)"><rect width="224" height="224" rx="18" fill="#080a0e" stroke="#f7f7f2" stroke-width="5" filter="url(#tile-shadow)"/><text x="112" y="41" fill="#f7f7f2" font-size="19" font-weight="800" letter-spacing="2.3" text-anchor="middle">BROKER</text><use href="#stockbroker-01-broker" x="45" y="52" width="134" height="134"/><text x="112" y="263" fill="#f7f7f2" font-size="17" font-weight="800" text-anchor="middle">01  BROKER</text></g>
    <g transform="translate(317 155)"><rect width="224" height="224" rx="18" fill="#080a0e" stroke="#f7f7f2" stroke-width="5" filter="url(#tile-shadow)"/><text x="112" y="41" fill="#f7f7f2" font-size="19" font-weight="800" letter-spacing="2.3" text-anchor="middle">BROKER</text><use href="#stockbroker-02-uptrend" x="45" y="52" width="134" height="134"/><text x="112" y="263" fill="#f7f7f2" font-size="17" font-weight="800" text-anchor="middle">02  UPTREND</text></g>
    <g transform="translate(588 155)"><rect width="224" height="224" rx="18" fill="#080a0e" stroke="#f7f7f2" stroke-width="5" filter="url(#tile-shadow)"/><text x="112" y="41" fill="#f7f7f2" font-size="19" font-weight="800" letter-spacing="2.3" text-anchor="middle">BROKER</text><use href="#stockbroker-03-candles" x="45" y="52" width="134" height="134"/><text x="112" y="263" fill="#f7f7f2" font-size="17" font-weight="800" text-anchor="middle">03  CANDLES</text></g>
    <g transform="translate(859 155)"><rect width="224" height="224" rx="18" fill="#080a0e" stroke="#f7f7f2" stroke-width="5" filter="url(#tile-shadow)"/><text x="112" y="41" fill="#f7f7f2" font-size="19" font-weight="800" letter-spacing="2.3" text-anchor="middle">BROKER</text><use href="#stockbroker-04-exchange" x="45" y="52" width="134" height="134"/><text x="112" y="263" fill="#f7f7f2" font-size="17" font-weight="800" text-anchor="middle">04  EXCHANGE</text></g>
    <g transform="translate(1130 155)"><rect width="224" height="224" rx="18" fill="#080a0e" stroke="#f7f7f2" stroke-width="5" filter="url(#tile-shadow)"/><text x="112" y="41" fill="#f7f7f2" font-size="19" font-weight="800" letter-spacing="2.3" text-anchor="middle">BROKER</text><use href="#stockbroker-05-bell" x="45" y="52" width="134" height="134"/><text x="112" y="263" fill="#f7f7f2" font-size="17" font-weight="800" text-anchor="middle">05  BELL</text></g>
    <g transform="translate(46 825)"><rect width="224" height="224" rx="18" fill="#080a0e" stroke="#f7f7f2" stroke-width="5" filter="url(#tile-shadow)"/><text x="112" y="41" fill="#f7f7f2" font-size="19" font-weight="800" letter-spacing="2.3" text-anchor="middle">BROKER</text><use href="#stockbroker-06-briefcase" x="45" y="52" width="134" height="134"/><text x="112" y="263" fill="#f7f7f2" font-size="17" font-weight="800" text-anchor="middle">06  BRIEFCASE</text></g>
    <g transform="translate(317 825)"><rect width="224" height="224" rx="18" fill="#080a0e" stroke="#f7f7f2" stroke-width="5" filter="url(#tile-shadow)"/><text x="112" y="41" fill="#f7f7f2" font-size="19" font-weight="800" letter-spacing="2.3" text-anchor="middle">BROKER</text><use href="#stockbroker-07-terminal" x="45" y="52" width="134" height="134"/><text x="112" y="263" fill="#f7f7f2" font-size="17" font-weight="800" text-anchor="middle">07  TERMINAL</text></g>
    <g transform="translate(588 825)"><rect width="224" height="224" rx="18" fill="#080a0e" stroke="#f7f7f2" stroke-width="5" filter="url(#tile-shadow)"/><text x="112" y="41" fill="#f7f7f2" font-size="19" font-weight="800" letter-spacing="2.3" text-anchor="middle">BROKER</text><use href="#stockbroker-08-bull" x="45" y="52" width="134" height="134"/><text x="112" y="263" fill="#f7f7f2" font-size="17" font-weight="800" text-anchor="middle">08  BULL</text></g>
    <g transform="translate(859 825)"><rect width="224" height="224" rx="18" fill="#080a0e" stroke="#f7f7f2" stroke-width="5" filter="url(#tile-shadow)"/><text x="112" y="41" fill="#f7f7f2" font-size="19" font-weight="800" letter-spacing="2.3" text-anchor="middle">BROKER</text><use href="#stockbroker-09-deal" x="45" y="52" width="134" height="134"/><text x="112" y="263" fill="#f7f7f2" font-size="17" font-weight="800" text-anchor="middle">09  DEAL</text></g>
    <g transform="translate(1130 825)"><rect width="224" height="224" rx="18" fill="#080a0e" stroke="#f7f7f2" stroke-width="5" filter="url(#tile-shadow)"/><text x="112" y="41" fill="#f7f7f2" font-size="19" font-weight="800" letter-spacing="2.3" text-anchor="middle">BROKER</text><use href="#stockbroker-10-ticker" x="45" y="52" width="134" height="134"/><text x="112" y="263" fill="#f7f7f2" font-size="17" font-weight="800" text-anchor="middle">10  TICKER</text></g>
  </g>
</svg>
