<svg xmlns="http://www.w3.org/2000/svg" width="1400" height="1400" viewBox="0 0 1400 1400">
  <title>Road to Riches architectural stockbroker square SVG candidates</title>
  <desc>Ten market-green brokerage and exchange building icons previewed on dark Road to Riches board tiles.</desc>
  <defs>
    <symbol id="stockbroker-01-exchange" viewBox="0 0 100 100">
      <path fill="currentColor" d="M8 34 50 8l42 26v7H8zM13 45h74v14H13z"/>
      <path fill="var(--broker-cutout,#080a0e)" d="m22 54 11-7 10 4 15-8 18 8-3 5-15-7-15 8-10-4-8 6z"/>
      <rect fill="currentColor" x="18" y="63" width="15" height="22" rx="2"/><rect fill="currentColor" x="43" y="63" width="14" height="22" rx="2"/><rect fill="currentColor" x="67" y="63" width="15" height="22" rx="2"/>
      <path fill="currentColor" d="M11 88h78v6H11zM6 96h88v4H6z"/>
    </symbol>
    <symbol id="stockbroker-02-storefront" viewBox="0 0 100 100">
      <path fill="currentColor" d="M12 16h76v10H12zM8 29h84v9H8zM13 42h74v44H13z"/>
      <path fill="var(--broker-cutout,#080a0e)" d="M19 55h18v25H19zM42 55h16v25H42zM63 55h18v25H63z"/>
      <path fill="currentColor" d="M12 39h76v11H12zM12 39l9 13 10-13 9 13 10-13 10 13 9-13 10 13 9-13zM9 89h82v8H9z"/>
    </symbol>
    <symbol id="stockbroker-03-ticker-house" viewBox="0 0 100 100">
      <path fill="currentColor" d="M8 35 50 10l42 25v7H8zM14 46h72v15H14zM17 65h66v22H17zM10 90h80v7H10z"/>
      <circle fill="var(--broker-cutout,#080a0e)" cx="25" cy="53.5" r="3"/><circle fill="var(--broker-cutout,#080a0e)" cx="40" cy="53.5" r="3"/><circle fill="var(--broker-cutout,#080a0e)" cx="55" cy="53.5" r="3"/><path fill="var(--broker-cutout,#080a0e)" d="m66 57 6-8 7 5-3 4-3-2-3 4zM24 71h14v16H24zM62 71h14v16H62zM44 73h12v14H44z"/>
    </symbol>
    <symbol id="stockbroker-04-exchange-tower" viewBox="0 0 100 100">
      <path fill="currentColor" d="M36 18 50 7l14 11v16h18l11 12v41H7V46l11-12h18zM4 90h92v7H4z"/>
      <circle fill="var(--broker-cutout,#080a0e)" cx="50" cy="25" r="7"/><path fill="var(--broker-cutout,#080a0e)" d="M18 51h13v26H18zM69 51h13v26H69zM43 43h14v34H43z"/>
      <path fill="currentColor" d="m45 27 4-6 4 3 4-6 3 2-7 10-4-3-2 3z"/>
    </symbol>
    <symbol id="stockbroker-05-brokerage" viewBox="0 0 100 100">
      <path fill="currentColor" d="M14 17h72l7 24H7zM12 45h76v42H12zM8 90h84v7H8z"/>
      <path fill="var(--broker-cutout,#080a0e)" d="M21 54h22v22H21zM57 54h22v22H57zM45 62h10v25H45z"/>
      <path fill="currentColor" d="M17 39h66v10H17zM20 28h60v6H20z"/>
      <path fill="var(--broker-cutout,#080a0e)" d="m31 33 8-7 8 4 13-9 9 6-3 4-6-4-13 9-8-4-5 5z"/>
    </symbol>
    <symbol id="stockbroker-06-trading-floor" viewBox="0 0 100 100">
      <path fill="currentColor" d="M17 14h66v10h8v12h6v52H3V36h6V24h8zM0 91h100v7H0z"/>
      <rect fill="var(--broker-cutout,#080a0e)" x="15" y="44" width="70" height="29" rx="3"/>
      <path fill="none" stroke="currentColor" stroke-width="7" stroke-linecap="round" stroke-linejoin="round" d="m22 66 13-11 11 5 15-13 16 7"/><path fill="currentColor" d="m67 47 16 1-7 14zM19 78h13v10H19zM44 78h12v10H44zM68 78h13v10H68z"/>
    </symbol>
    <symbol id="stockbroker-07-arcade" viewBox="0 0 100 100">
      <path fill="currentColor" d="M11 42a39 30 0 0 1 78 0v8H11zM14 54h72v33H14zM9 90h82v7H9z"/>
      <path fill="var(--broker-cutout,#080a0e)" d="M21 87V72a10 10 0 0 1 20 0v15zM40 87V68a10 10 0 0 1 20 0v19zM59 87V72a10 10 0 0 1 20 0v15z"/>
      <path fill="var(--broker-cutout,#080a0e)" d="m38 42 8-9 7 4 10-12 5 4-14 16-7-4-5 6z"/>
    </symbol>
    <symbol id="stockbroker-08-ledger-hall" viewBox="0 0 100 100">
      <path fill="currentColor" d="M10 14h80v10H10zM6 28h88v10H6zM12 42h76v45H12zM8 90h84v7H8z"/>
      <path fill="var(--broker-cutout,#080a0e)" d="M20 70h12v17H20zM37 62h12v25H37zM54 53h12v34H54zM71 46h10v41H71z"/>
      <path fill="currentColor" d="m18 60 15-10 12 4 18-14 17 4-2 6-14-4-18 14-12-4-12 9z"/>
    </symbol>
    <symbol id="stockbroker-09-bell-exchange" viewBox="0 0 100 100">
      <path fill="currentColor" d="M8 36 50 8l42 28v7H8zM13 47h74v10H13zM18 61h14v25H18zM68 61h14v25H68zM39 61h22v25H39zM10 89h80v8H10z"/>
      <path fill="var(--broker-cutout,#080a0e)" d="M43 34c4-3 5-7 5-11 0-4 1-6 2-6s2 2 2 6c0 4 1 8 5 11v3H43zM46 38h8v3h-8zM45 68h10v18H45z"/>
    </symbol>
    <symbol id="stockbroker-10-bull-exchange" viewBox="0 0 100 100">
      <path fill="currentColor" d="M12 17c8 8 15 11 24 10 4-6 8-9 14-9s10 3 14 9c9 1 16-2 24-10-1 13-7 22-17 27H29C19 39 13 30 12 17zM12 48h76v13H12zM17 65h66v22H17zM9 90h82v7H9z"/>
      <path fill="var(--broker-cutout,#080a0e)" d="m23 57 10-5 10 3 14-6 20 6-2 5-18-5-14 6-10-3-7 4zM23 70h16v17H23zM61 70h16v17H61zM45 72h10v15H45z"/>
    </symbol>
    <filter id="tile-shadow" x="-20%" y="-20%" width="140%" height="150%"><feDropShadow dx="0" dy="8" stdDeviation="9" flood-color="#000" flood-opacity=".28"/></filter>
  </defs>
  <rect width="1400" height="1400" fill="#171b24"/>
  <text x="48" y="72" fill="#f7f7f2" font-family="Inter,ui-sans-serif,system-ui,sans-serif" font-size="34" font-weight="800" letter-spacing="1.4">STOCKBROKER BUILDING DIRECTIONS</text>
  <text x="1352" y="69" fill="#9da5b4" font-family="Inter,ui-sans-serif,system-ui,sans-serif" font-size="17" text-anchor="end">ARCHITECTURAL SIBLINGS • TEMPORARY MARKET GREEN</text>
  <g color="#62d6a1" style="--broker-cutout:#080a0e" font-family="Inter,ui-sans-serif,system-ui,sans-serif">
    <g transform="translate(46 155)"><rect width="224" height="224" rx="18" fill="#080a0e" stroke="#f7f7f2" stroke-width="5" filter="url(#tile-shadow)"/><text x="112" y="41" fill="#f7f7f2" font-size="19" font-weight="800" letter-spacing="2.3" text-anchor="middle">BROKER</text><use href="#stockbroker-01-exchange" x="45" y="52" width="134" height="134"/><text x="112" y="263" fill="#f7f7f2" font-size="17" font-weight="800" text-anchor="middle">01  EXCHANGE</text></g>
    <g transform="translate(317 155)"><rect width="224" height="224" rx="18" fill="#080a0e" stroke="#f7f7f2" stroke-width="5" filter="url(#tile-shadow)"/><text x="112" y="41" fill="#f7f7f2" font-size="19" font-weight="800" letter-spacing="2.3" text-anchor="middle">BROKER</text><use href="#stockbroker-02-storefront" x="45" y="52" width="134" height="134"/><text x="112" y="263" fill="#f7f7f2" font-size="17" font-weight="800" text-anchor="middle">02  STOREFRONT</text></g>
    <g transform="translate(588 155)"><rect width="224" height="224" rx="18" fill="#080a0e" stroke="#f7f7f2" stroke-width="5" filter="url(#tile-shadow)"/><text x="112" y="41" fill="#f7f7f2" font-size="19" font-weight="800" letter-spacing="2.3" text-anchor="middle">BROKER</text><use href="#stockbroker-03-ticker-house" x="45" y="52" width="134" height="134"/><text x="112" y="263" fill="#f7f7f2" font-size="17" font-weight="800" text-anchor="middle">03  TICKER HOUSE</text></g>
    <g transform="translate(859 155)"><rect width="224" height="224" rx="18" fill="#080a0e" stroke="#f7f7f2" stroke-width="5" filter="url(#tile-shadow)"/><text x="112" y="41" fill="#f7f7f2" font-size="19" font-weight="800" letter-spacing="2.3" text-anchor="middle">BROKER</text><use href="#stockbroker-04-exchange-tower" x="45" y="52" width="134" height="134"/><text x="112" y="263" fill="#f7f7f2" font-size="17" font-weight="800" text-anchor="middle">04  TOWER</text></g>
    <g transform="translate(1130 155)"><rect width="224" height="224" rx="18" fill="#080a0e" stroke="#f7f7f2" stroke-width="5" filter="url(#tile-shadow)"/><text x="112" y="41" fill="#f7f7f2" font-size="19" font-weight="800" letter-spacing="2.3" text-anchor="middle">BROKER</text><use href="#stockbroker-05-brokerage" x="45" y="52" width="134" height="134"/><text x="112" y="263" fill="#f7f7f2" font-size="17" font-weight="800" text-anchor="middle">05  BROKERAGE</text></g>
    <g transform="translate(46 825)"><rect width="224" height="224" rx="18" fill="#080a0e" stroke="#f7f7f2" stroke-width="5" filter="url(#tile-shadow)"/><text x="112" y="41" fill="#f7f7f2" font-size="19" font-weight="800" letter-spacing="2.3" text-anchor="middle">BROKER</text><use href="#stockbroker-06-trading-floor" x="45" y="52" width="134" height="134"/><text x="112" y="263" fill="#f7f7f2" font-size="17" font-weight="800" text-anchor="middle">06  TRADING FLOOR</text></g>
    <g transform="translate(317 825)"><rect width="224" height="224" rx="18" fill="#080a0e" stroke="#f7f7f2" stroke-width="5" filter="url(#tile-shadow)"/><text x="112" y="41" fill="#f7f7f2" font-size="19" font-weight="800" letter-spacing="2.3" text-anchor="middle">BROKER</text><use href="#stockbroker-07-arcade" x="45" y="52" width="134" height="134"/><text x="112" y="263" fill="#f7f7f2" font-size="17" font-weight="800" text-anchor="middle">07  ARCADE</text></g>
    <g transform="translate(588 825)"><rect width="224" height="224" rx="18" fill="#080a0e" stroke="#f7f7f2" stroke-width="5" filter="url(#tile-shadow)"/><text x="112" y="41" fill="#f7f7f2" font-size="19" font-weight="800" letter-spacing="2.3" text-anchor="middle">BROKER</text><use href="#stockbroker-08-ledger-hall" x="45" y="52" width="134" height="134"/><text x="112" y="263" fill="#f7f7f2" font-size="17" font-weight="800" text-anchor="middle">08  LEDGER HALL</text></g>
    <g transform="translate(859 825)"><rect width="224" height="224" rx="18" fill="#080a0e" stroke="#f7f7f2" stroke-width="5" filter="url(#tile-shadow)"/><text x="112" y="41" fill="#f7f7f2" font-size="19" font-weight="800" letter-spacing="2.3" text-anchor="middle">BROKER</text><use href="#stockbroker-09-bell-exchange" x="45" y="52" width="134" height="134"/><text x="112" y="263" fill="#f7f7f2" font-size="17" font-weight="800" text-anchor="middle">09  BELL EXCHANGE</text></g>
    <g transform="translate(1130 825)"><rect width="224" height="224" rx="18" fill="#080a0e" stroke="#f7f7f2" stroke-width="5" filter="url(#tile-shadow)"/><text x="112" y="41" fill="#f7f7f2" font-size="19" font-weight="800" letter-spacing="2.3" text-anchor="middle">BROKER</text><use href="#stockbroker-10-bull-exchange" x="45" y="52" width="134" height="134"/><text x="112" y="263" fill="#f7f7f2" font-size="17" font-weight="800" text-anchor="middle">10  BULL EXCHANGE</text></g>
  </g>
</svg>
