<svg xmlns="http://www.w3.org/2000/svg" width="1400" height="1400" viewBox="0 0 1400 1400">
  <title>Road to Riches venture question-mark SVG finalists</title>
  <desc>Five Classic variations, five Soft variations, and five pink-on-black interpretations of the provided chunky question-mark reference.</desc>
  <defs>
    <symbol id="venture-a1" viewBox="0 0 100 100"><path fill="none" stroke="currentColor" stroke-width="13" stroke-linecap="round" d="M25 30C25 16 36 8 51 8s26 8 26 21c0 12-7 18-18 24-8 5-11 10-11 18"/><circle fill="currentColor" cx="48" cy="90" r="7"/></symbol>
    <symbol id="venture-a2" viewBox="0 0 100 100"><path fill="none" stroke="currentColor" stroke-width="13" stroke-linecap="round" d="M20 31C21 16 34 8 51 8 68 8 80 17 80 30c0 12-8 18-19 24-9 5-12 10-12 18"/><circle fill="currentColor" cx="49" cy="90" r="7"/></symbol>
    <symbol id="venture-a3" viewBox="0 0 100 100"><path fill="none" stroke="currentColor" stroke-width="12" stroke-linecap="round" d="M28 28C29 15 39 8 52 8 67 8 76 16 76 29c0 12-8 17-17 23-8 5-11 11-11 20"/><circle fill="currentColor" cx="48" cy="90" r="6.5"/></symbol>
    <symbol id="venture-a4" viewBox="0 0 100 100"><path fill="none" stroke="currentColor" stroke-width="13" stroke-linecap="round" d="M24 29C25 15 36 8 51 8 68 8 78 17 78 30c0 13-9 18-19 24-7 4-10 9-10 21"/><circle fill="currentColor" cx="49" cy="91" r="7"/></symbol>
    <symbol id="venture-a5" viewBox="0 0 100 100"><path fill="none" stroke="currentColor" stroke-width="15" stroke-linecap="round" d="M23 30C23 16 35 8 51 8 68 8 79 17 79 31c0 12-8 18-19 24-8 5-11 9-11 17"/><circle fill="currentColor" cx="49" cy="90" r="8"/></symbol>

    <symbol id="venture-b1" viewBox="0 0 100 100"><path fill="none" stroke="currentColor" stroke-width="14" stroke-linecap="round" stroke-linejoin="round" d="M22 31C22 17 34 9 50 9c17 0 28 9 28 23 0 13-10 18-20 24-7 4-10 8-10 16"/><circle fill="currentColor" cx="48" cy="90" r="7.5"/></symbol>
    <symbol id="venture-b2" viewBox="0 0 100 100"><path fill="none" stroke="currentColor" stroke-width="14" stroke-linecap="round" stroke-linejoin="round" d="M18 32C18 17 32 8 50 8 69 8 82 18 82 33c0 13-10 19-21 24-8 4-11 8-11 15"/><circle fill="currentColor" cx="50" cy="90" r="7.5"/></symbol>
    <symbol id="venture-b3" viewBox="0 0 100 100"><path fill="none" stroke="currentColor" stroke-width="14" stroke-linecap="round" stroke-linejoin="round" d="M25 30C25 18 35 11 50 11 65 11 75 19 75 31c0 12-9 17-18 22-7 4-10 9-10 17"/><circle fill="currentColor" cx="47" cy="88" r="7.5"/></symbol>
    <symbol id="venture-b4" viewBox="0 0 100 100"><path fill="none" stroke="currentColor" stroke-width="13" stroke-linecap="round" stroke-linejoin="round" d="M22 29C23 16 35 8 51 8 68 8 79 17 79 31c0 13-10 19-20 25-8 4-11 9-11 20"/><circle fill="currentColor" cx="48" cy="92" r="7"/></symbol>
    <symbol id="venture-b5" viewBox="0 0 100 100"><path fill="none" stroke="currentColor" stroke-width="15" stroke-linecap="round" stroke-linejoin="round" d="M21 32C21 17 33 8 50 8 68 8 80 18 80 33c0 14-11 19-21 24-7 4-10 8-10 15"/><circle fill="currentColor" cx="49" cy="90" r="8.5"/></symbol>

    <symbol id="venture-c1" viewBox="0 0 100 100"><path fill="none" stroke="currentColor" stroke-width="17" stroke-linecap="round" stroke-linejoin="round" d="M18 30C20 14 37 7 55 10 72 13 80 24 76 38 72 49 62 52 55 58c-5 4-7 8-7 14"/><circle fill="currentColor" cx="48" cy="89" r="9"/></symbol>
    <symbol id="venture-c2" viewBox="0 0 100 100"><path fill="none" stroke="currentColor" stroke-width="18" stroke-linecap="round" stroke-linejoin="round" d="M17 31C19 14 36 7 55 10 73 13 82 25 77 39 73 50 62 52 55 59c-4 4-6 8-6 13"/><circle fill="currentColor" cx="49" cy="88" r="10"/></symbol>
    <symbol id="venture-c3" viewBox="0 0 100 100"><path fill="none" stroke="currentColor" stroke-width="16" stroke-linecap="round" stroke-linejoin="round" d="M19 28C23 13 39 8 56 10 73 12 81 24 77 37 74 48 64 51 56 57c-6 5-8 10-8 16"/><circle fill="currentColor" cx="48" cy="90" r="9.5"/></symbol>
    <symbol id="venture-c4" viewBox="0 0 100 100"><path fill="none" stroke="currentColor" stroke-width="19" stroke-linecap="round" stroke-linejoin="round" d="M18 31C20 15 36 8 53 10 70 12 79 23 76 36 73 47 62 50 55 56c-5 4-7 8-7 14"/><circle fill="currentColor" cx="48" cy="86" r="11"/></symbol>
    <symbol id="venture-c5" viewBox="0 0 100 100"><path fill="none" stroke="currentColor" stroke-width="17" stroke-linecap="round" stroke-linejoin="round" d="M16 29C20 13 37 7 56 10 74 13 82 25 77 39 73 50 62 53 55 59c-5 4-7 8-7 14"/><circle fill="currentColor" cx="48" cy="85" r="10"/></symbol>
    <filter id="tile-shadow" x="-20%" y="-20%" width="140%" height="150%"><feDropShadow dx="0" dy="8" stdDeviation="9" flood-color="#000" flood-opacity=".28"/></filter>
  </defs>
  <rect width="1400" height="1400" fill="#171b24"/>
  <text x="48" y="64" fill="#f7f7f2" font-family="Inter,ui-sans-serif,system-ui,sans-serif" font-size="34" font-weight="800" letter-spacing="1.4">VENTURE QUESTION-MARK FINALISTS</text>
  <text x="1352" y="61" fill="#9da5b4" font-family="Inter,ui-sans-serif,system-ui,sans-serif" font-size="17" text-anchor="end">HEART PINK • BLACK TILE • WHITE BORDER</text>
  <g color="#ff6aae" font-family="Inter,ui-sans-serif,system-ui,sans-serif">
    <text x="46" y="110" fill="#9da5b4" font-size="17" font-weight="800">01 CLASSIC FAMILY</text>
    <g transform="translate(46 125)"><rect width="224" height="224" rx="18" fill="#080a0e" stroke="#f7f7f2" stroke-width="5" filter="url(#tile-shadow)"/><use href="#venture-a1" x="45" y="35" width="134" height="154"/><text x="112" y="263" fill="#f7f7f2" font-size="17" font-weight="800" text-anchor="middle">A1</text></g>
    <g transform="translate(317 125)"><rect width="224" height="224" rx="18" fill="#080a0e" stroke="#f7f7f2" stroke-width="5" filter="url(#tile-shadow)"/><use href="#venture-a2" x="45" y="35" width="134" height="154"/><text x="112" y="263" fill="#f7f7f2" font-size="17" font-weight="800" text-anchor="middle">A2</text></g>
    <g transform="translate(588 125)"><rect width="224" height="224" rx="18" fill="#080a0e" stroke="#f7f7f2" stroke-width="5" filter="url(#tile-shadow)"/><use href="#venture-a3" x="45" y="35" width="134" height="154"/><text x="112" y="263" fill="#f7f7f2" font-size="17" font-weight="800" text-anchor="middle">A3</text></g>
    <g transform="translate(859 125)"><rect width="224" height="224" rx="18" fill="#080a0e" stroke="#f7f7f2" stroke-width="5" filter="url(#tile-shadow)"/><use href="#venture-a4" x="45" y="35" width="134" height="154"/><text x="112" y="263" fill="#f7f7f2" font-size="17" font-weight="800" text-anchor="middle">A4</text></g>
    <g transform="translate(1130 125)"><rect width="224" height="224" rx="18" fill="#080a0e" stroke="#f7f7f2" stroke-width="5" filter="url(#tile-shadow)"/><use href="#venture-a5" x="45" y="35" width="134" height="154"/><text x="112" y="263" fill="#f7f7f2" font-size="17" font-weight="800" text-anchor="middle">A5</text></g>

    <text x="46" y="510" fill="#9da5b4" font-size="17" font-weight="800">02 SOFT FAMILY</text>
    <g transform="translate(46 525)"><rect width="224" height="224" rx="18" fill="#080a0e" stroke="#f7f7f2" stroke-width="5" filter="url(#tile-shadow)"/><use href="#venture-b1" x="45" y="35" width="134" height="154"/><text x="112" y="263" fill="#f7f7f2" font-size="17" font-weight="800" text-anchor="middle">B1</text></g>
    <g transform="translate(317 525)"><rect width="224" height="224" rx="18" fill="#080a0e" stroke="#f7f7f2" stroke-width="5" filter="url(#tile-shadow)"/><use href="#venture-b2" x="45" y="35" width="134" height="154"/><text x="112" y="263" fill="#f7f7f2" font-size="17" font-weight="800" text-anchor="middle">B2</text></g>
    <g transform="translate(588 525)"><rect width="224" height="224" rx="18" fill="#080a0e" stroke="#f7f7f2" stroke-width="5" filter="url(#tile-shadow)"/><use href="#venture-b3" x="45" y="35" width="134" height="154"/><text x="112" y="263" fill="#f7f7f2" font-size="17" font-weight="800" text-anchor="middle">B3</text></g>
    <g transform="translate(859 525)"><rect width="224" height="224" rx="18" fill="#080a0e" stroke="#f7f7f2" stroke-width="5" filter="url(#tile-shadow)"/><use href="#venture-b4" x="45" y="35" width="134" height="154"/><text x="112" y="263" fill="#f7f7f2" font-size="17" font-weight="800" text-anchor="middle">B4</text></g>
    <g transform="translate(1130 525)"><rect width="224" height="224" rx="18" fill="#080a0e" stroke="#f7f7f2" stroke-width="5" filter="url(#tile-shadow)"/><use href="#venture-b5" x="45" y="35" width="134" height="154"/><text x="112" y="263" fill="#f7f7f2" font-size="17" font-weight="800" text-anchor="middle">B5</text></g>

    <text x="46" y="910" fill="#9da5b4" font-size="17" font-weight="800">UPLOADED SAMPLE FAMILY</text>
    <g transform="translate(46 925)"><rect width="224" height="224" rx="18" fill="#080a0e" stroke="#f7f7f2" stroke-width="5" filter="url(#tile-shadow)"/><use href="#venture-c1" x="45" y="35" width="134" height="154"/><text x="112" y="263" fill="#f7f7f2" font-size="17" font-weight="800" text-anchor="middle">C1</text></g>
    <g transform="translate(317 925)"><rect width="224" height="224" rx="18" fill="#080a0e" stroke="#f7f7f2" stroke-width="5" filter="url(#tile-shadow)"/><use href="#venture-c2" x="45" y="35" width="134" height="154"/><text x="112" y="263" fill="#f7f7f2" font-size="17" font-weight="800" text-anchor="middle">C2</text></g>
    <g transform="translate(588 925)"><rect width="224" height="224" rx="18" fill="#080a0e" stroke="#f7f7f2" stroke-width="5" filter="url(#tile-shadow)"/><use href="#venture-c3" x="45" y="35" width="134" height="154"/><text x="112" y="263" fill="#f7f7f2" font-size="17" font-weight="800" text-anchor="middle">C3</text></g>
    <g transform="translate(859 925)"><rect width="224" height="224" rx="18" fill="#080a0e" stroke="#f7f7f2" stroke-width="5" filter="url(#tile-shadow)"/><use href="#venture-c4" x="45" y="35" width="134" height="154"/><text x="112" y="263" fill="#f7f7f2" font-size="17" font-weight="800" text-anchor="middle">C4</text></g>
    <g transform="translate(1130 925)"><rect width="224" height="224" rx="18" fill="#080a0e" stroke="#f7f7f2" stroke-width="5" filter="url(#tile-shadow)"/><use href="#venture-c5" x="45" y="35" width="134" height="154"/><text x="112" y="263" fill="#f7f7f2" font-size="17" font-weight="800" text-anchor="middle">C5</text></g>
  </g>
</svg>
