<svg xmlns="http://www.w3.org/2000/svg" width="1400" height="1400" viewBox="0 0 1400 1400">
  <title>Road to Riches venture square question-mark SVG candidates</title>
  <desc>Ten pink question-mark silhouettes previewed alone on dark Road to Riches board tiles.</desc>
  <defs>
    <symbol id="venture-01-classic" viewBox="0 0 100 100">
      <path fill="none" stroke="currentColor" stroke-width="13" stroke-linecap="round" d="M25 30C25 16 36 8 51 8s26 8 26 21c0 12-7 18-18 24-8 5-11 10-11 18"/><circle fill="currentColor" cx="48" cy="90" r="7"/>
    </symbol>
    <symbol id="venture-02-soft" viewBox="0 0 100 100">
      <path fill="none" stroke="currentColor" stroke-width="14" stroke-linecap="round" stroke-linejoin="round" d="M22 31C22 17 34 9 50 9c17 0 28 9 28 23 0 13-10 18-20 24-7 4-10 8-10 16"/><circle fill="currentColor" cx="48" cy="90" r="7.5"/>
    </symbol>
    <symbol id="venture-03-hook" viewBox="0 0 100 100">
      <path fill="none" stroke="currentColor" stroke-width="12" stroke-linecap="round" stroke-linejoin="round" d="M23 28C25 15 36 8 51 8c17 0 27 9 27 22 0 17-17 19-24 28-3 4-5 8-5 14"/><circle fill="currentColor" cx="49" cy="90" r="6.5"/>
    </symbol>
    <symbol id="venture-04-bold" viewBox="0 0 100 100">
      <path fill="none" stroke="currentColor" stroke-width="18" stroke-linecap="round" stroke-linejoin="round" d="M21 29C22 15 34 8 50 8 67 8 79 17 79 31c0 12-8 18-18 24-8 5-11 9-11 17"/><circle fill="currentColor" cx="50" cy="90" r="9"/>
    </symbol>
    <symbol id="venture-05-slim" viewBox="0 0 100 100">
      <path fill="none" stroke="currentColor" stroke-width="9" stroke-linecap="round" d="M27 27C29 15 39 8 52 8 67 8 76 16 76 29c0 12-8 17-17 23-8 5-11 10-11 20"/><circle fill="currentColor" cx="48" cy="90" r="5"/>
    </symbol>
    <symbol id="venture-06-bubble" viewBox="0 0 100 100">
      <path fill="none" stroke="currentColor" stroke-width="15" stroke-linecap="round" stroke-linejoin="round" d="M20 31C20 17 32 8 50 8c18 0 30 9 30 24 0 14-10 20-21 25-7 4-10 8-10 15"/><circle fill="currentColor" cx="49" cy="89" r="10"/>
    </symbol>
    <symbol id="venture-07-tilted" viewBox="0 0 100 100">
      <g transform="rotate(-9 50 50)"><path fill="none" stroke="currentColor" stroke-width="13" stroke-linecap="round" d="M25 29C26 15 37 8 52 8 68 8 78 17 78 30c0 12-8 17-18 23-8 5-11 10-11 18"/><circle fill="currentColor" cx="49" cy="90" r="7"/></g>
    </symbol>
    <symbol id="venture-08-angular" viewBox="0 0 100 100">
      <path fill="none" stroke="currentColor" stroke-width="12" stroke-linecap="square" stroke-linejoin="round" d="M23 29V22L36 9h29l13 13v18L57 57v15"/><rect fill="currentColor" x="50" y="84" width="14" height="14" rx="2"/>
    </symbol>
    <symbol id="venture-09-loop" viewBox="0 0 100 100">
      <path fill="none" stroke="currentColor" stroke-width="12" stroke-linecap="round" stroke-linejoin="round" d="M24 31C24 17 35 9 50 9 67 9 78 18 78 31c0 14-11 20-22 25-8 4-12 9-12 16 0 4 3 7 7 7"/><circle fill="currentColor" cx="51" cy="92" r="6"/>
    </symbol>
    <symbol id="venture-10-playful" viewBox="0 0 100 100">
      <path fill="none" stroke="currentColor" stroke-width="14" stroke-linecap="round" stroke-linejoin="round" d="M20 28C24 15 35 8 51 8 68 8 79 17 78 31 77 44 66 47 57 54c-6 5-8 10-7 18"/><path fill="currentColor" d="m50 82 9 9-9 9-9-9z"/>
    </symbol>
    <filter id="tile-shadow" x="-20%" y="-20%" width="140%" height="150%"><feDropShadow dx="0" dy="8" stdDeviation="9" flood-color="#000" flood-opacity=".28"/></filter>
  </defs>
  <rect width="1400" height="1400" fill="#171b24"/>
  <text x="48" y="72" fill="#f7f7f2" font-family="Inter,ui-sans-serif,system-ui,sans-serif" font-size="34" font-weight="800" letter-spacing="1.4">VENTURE QUESTION-MARK DIRECTIONS</text>
  <text x="1352" y="69" fill="#9da5b4" font-family="Inter,ui-sans-serif,system-ui,sans-serif" font-size="17" text-anchor="end">PINK MARK ONLY • NO LABEL • NO EXTRA IMAGERY</text>
  <g color="#ff6aae" font-family="Inter,ui-sans-serif,system-ui,sans-serif">
    <g transform="translate(46 155)"><rect width="224" height="224" rx="18" fill="#080a0e" stroke="#f7f7f2" stroke-width="5" filter="url(#tile-shadow)"/><use href="#venture-01-classic" x="45" y="35" width="134" height="154"/><text x="112" y="263" fill="#f7f7f2" font-size="17" font-weight="800" text-anchor="middle">01  CLASSIC</text></g>
    <g transform="translate(317 155)"><rect width="224" height="224" rx="18" fill="#080a0e" stroke="#f7f7f2" stroke-width="5" filter="url(#tile-shadow)"/><use href="#venture-02-soft" x="45" y="35" width="134" height="154"/><text x="112" y="263" fill="#f7f7f2" font-size="17" font-weight="800" text-anchor="middle">02  SOFT</text></g>
    <g transform="translate(588 155)"><rect width="224" height="224" rx="18" fill="#080a0e" stroke="#f7f7f2" stroke-width="5" filter="url(#tile-shadow)"/><use href="#venture-03-hook" x="45" y="35" width="134" height="154"/><text x="112" y="263" fill="#f7f7f2" font-size="17" font-weight="800" text-anchor="middle">03  HOOK</text></g>
    <g transform="translate(859 155)"><rect width="224" height="224" rx="18" fill="#080a0e" stroke="#f7f7f2" stroke-width="5" filter="url(#tile-shadow)"/><use href="#venture-04-bold" x="45" y="35" width="134" height="154"/><text x="112" y="263" fill="#f7f7f2" font-size="17" font-weight="800" text-anchor="middle">04  BOLD</text></g>
    <g transform="translate(1130 155)"><rect width="224" height="224" rx="18" fill="#080a0e" stroke="#f7f7f2" stroke-width="5" filter="url(#tile-shadow)"/><use href="#venture-05-slim" x="45" y="35" width="134" height="154"/><text x="112" y="263" fill="#f7f7f2" font-size="17" font-weight="800" text-anchor="middle">05  SLIM</text></g>
    <g transform="translate(46 825)"><rect width="224" height="224" rx="18" fill="#080a0e" stroke="#f7f7f2" stroke-width="5" filter="url(#tile-shadow)"/><use href="#venture-06-bubble" x="45" y="35" width="134" height="154"/><text x="112" y="263" fill="#f7f7f2" font-size="17" font-weight="800" text-anchor="middle">06  BUBBLE</text></g>
    <g transform="translate(317 825)"><rect width="224" height="224" rx="18" fill="#080a0e" stroke="#f7f7f2" stroke-width="5" filter="url(#tile-shadow)"/><use href="#venture-07-tilted" x="45" y="35" width="134" height="154"/><text x="112" y="263" fill="#f7f7f2" font-size="17" font-weight="800" text-anchor="middle">07  TILTED</text></g>
    <g transform="translate(588 825)"><rect width="224" height="224" rx="18" fill="#080a0e" stroke="#f7f7f2" stroke-width="5" filter="url(#tile-shadow)"/><use href="#venture-08-angular" x="45" y="35" width="134" height="154"/><text x="112" y="263" fill="#f7f7f2" font-size="17" font-weight="800" text-anchor="middle">08  ANGULAR</text></g>
    <g transform="translate(859 825)"><rect width="224" height="224" rx="18" fill="#080a0e" stroke="#f7f7f2" stroke-width="5" filter="url(#tile-shadow)"/><use href="#venture-09-loop" x="45" y="35" width="134" height="154"/><text x="112" y="263" fill="#f7f7f2" font-size="17" font-weight="800" text-anchor="middle">09  LOOP</text></g>
    <g transform="translate(1130 825)"><rect width="224" height="224" rx="18" fill="#080a0e" stroke="#f7f7f2" stroke-width="5" filter="url(#tile-shadow)"/><use href="#venture-10-playful" x="45" y="35" width="134" height="154"/><text x="112" y="263" fill="#f7f7f2" font-size="17" font-weight="800" text-anchor="middle">10  PLAYFUL</text></g>
  </g>
</svg>
